<svg xmlns="http://www.w3.org/2000/svg" viewBox="0 0 1400 900" role="img" aria-labelledby="title desc">
  <title id="title">SY Mark 1 recumbent reverse trike concept</title>
  <desc id="desc">A minimalist technical side render of a recumbent reverse trike with two front wheels, a rear wheel, a reclined seat, and modular frame lines.</desc>
  <rect width="1400" height="900" fill="#f4f4f0"/>
  <g fill="none" stroke="#0a0a0a" stroke-linecap="round" stroke-linejoin="round">
    <path d="M236 646h912" stroke-width="3" opacity=".16"/>
    <circle cx="362" cy="638" r="96" stroke-width="24"/>
    <circle cx="1008" cy="638" r="116" stroke-width="24"/>
    <circle cx="362" cy="638" r="16" stroke-width="14"/>
    <circle cx="1008" cy="638" r="18" stroke-width="14"/>
    <path d="M362 638 562 450 808 638 1008 638 754 400 562 450" stroke-width="30"/>
    <path d="M562 450 684 618 808 638" stroke-width="22"/>
    <path d="M608 418c86-54 178-68 276-42" stroke-width="24"/>
    <path d="M690 385 606 300M606 300h-78M870 382l70-90M940 292h74" stroke-width="18"/>
    <path d="M708 382c22 35 62 53 120 54" stroke-width="20"/>
    <path d="M540 446c-36-36-70-62-102-78" stroke-width="16"/>
    <path d="M438 368h-64" stroke-width="14"/>
    <path d="M820 640c34-100 96-176 186-228" stroke-width="18"/>
    <path d="M1008 638 1084 414h84" stroke-width="18"/>
    <path d="M260 746c166 38 326 57 480 57 154 0 287-19 400-57" stroke-width="8" opacity=".2"/>
    <path d="M478 510h236M554 566h296M606 620h282" stroke-width="8" opacity=".3"/>
  </g>
  <g fill="#0a0a0a" font-family="Arial, Helvetica, sans-serif">
    <text x="88" y="122" font-size="48" font-weight="700" letter-spacing="4">SY MARK 1</text>
    <text x="90" y="170" font-size="18" letter-spacing="6">MODULAR RECUMBENT REVERSE TRIKE</text>
    <text x="1110" y="812" font-size="14" letter-spacing="4">AI-GUIDED / BOLT-TOGETHER</text>
  </g>
</svg>
